
        <svg xmlns="http://www.w3.org/2000/svg" xmlns:xlink="http://www.w3.org/1999/xlink" version="1.1" width="3035.7624272229023" 
        height="3182.602251261528" viewBox="0 0 3035.7624272229023 3182.602251261528">
			<rect fill="#112d4e" width="3035.7624272229023" height="3182.602251261528"/>
			<g transform="scale(9.130112563076398) translate(10, 10)">
				<defs id="SvgjsDefs1171"><linearGradient id="SvgjsLinearGradient1180"><stop id="SvgjsStop1181" stop-color="#00ff8f" offset="0"></stop><stop id="SvgjsStop1182" stop-color="#00a1ff" offset="1"></stop></linearGradient><linearGradient id="SvgjsLinearGradient1183"><stop id="SvgjsStop1184" stop-color="#00ff8f" offset="0"></stop><stop id="SvgjsStop1185" stop-color="#00a1ff" offset="1"></stop></linearGradient></defs><g id="SvgjsG1172" featureKey="rootContainer" transform="matrix(3.1383286545726086,0,0,3.1383286545726086,0,-0.6276657402674699)" fill="#ffffff"><g xmlns="http://www.w3.org/2000/svg"><path d="M99.4 43.1c0-.4-.1-.8-.1-1.2l-.2-1.2c-.2-1-.4-2-.7-3l-.4-1.4-.4-1.4-.5-1.6-.2-.8-.3-.8-.6-1.5-.6-1.5a13.7 13.7 0 0 0-.8-1.6l-.4-.7-.2-.3-.2-.3-1.8-2.5c-.9-1.1-1-1-.4.3s1.4 3.2 2.1 4.8l.3.6.2.6.5 1.3.5 1.3.3.7.2.7.6 1.8.4 1.8q.3 1.5.5 3c-.3-.7-.6-1.5-.9-2.1s-1.2-1.6-.9-.1l.2 1.1.3 1.3.2.7.2.7.4 1.5.4 1.5.4 1.4c.2.8.4 1.5.6 2.1s.6 1.9.8.8 0-.5.1-.6a7 7 0 0 0 .4-1.4 15.9 15.9 0 0 0 .1-3.9zM20 11.7l1.2-.7 1.3-.7.7-.4.7-.4 1.4-.9 1.3-.7.9-.5.9-.4.8-.5.8-.4 1.5-.9 1.5-.8.6-.5c.1-.1.2-.3.2-.3l-.6-.2-1.2.1-1.7.5-1 .4-1 .5-1.3.8-.4.2-.4.3-.8.5-.8.5-.8.6-1.1.8-1 .8-.9.8-.8.8c-1.1.9-.9 1.3 0 .7zM26.7 92l-1-.8-1.4-1.1-.7-.5-.7-.5-1.5-1.1-1.4-1-.4-.3-.3-.3-.7-.5-.7-.5-.7-.5-1.2-1.1-1.3-1.1-.4-.3-.9-.6.2.4.6.9.5.6.5.7.2.3.3.3 1.2 1.4 1.5 1.4.4.3.4.3.9.7.7.6.8.5 1.6.9 1.6.8 1.6.7c.7.3 1.2.4 1.2.3l-.2-.2-.3-.2zM6.1 29.8l.6-.9.7-1.1.4-.6.4-.6.8-1.3.8-1.3.7-1.2 1.2-2.1c.3-.6.4-1 .2-1l-.4.2-.3.3-.4.4-.8.9-.4.5-.4.5-.7 1-.7 1A37.7 37.7 0 0 0 5.6 29c-.6 1.8-.4 2 .5.8zM64.6 3a33.2 33.2 0 0 1 7.5 3.3l1.3.7 1.2.7 1 .6.8.5 1.2.6c.1 0 .1 0 0-.1l-.3-.4-1.4-1.3L74 6.5l-.8-.4-.8-.4-.8-.4-.8-.3-1.6-.7-1.6-.8-1.3-.5-1.5-.5c-.8-.2-1.6-.4-1.7-.2s.4.4 1.5.7zM46.8.5h3.7L50 .2h-3.2a1.8 1.8 0 0 0-.9.4z"></path><path d="M16.4 89.4a3.6 3.6 0 0 0-.6-1.1l-.6-.8-.8-.9-.9-1-.9-1-.4-.5-.2-.3-.2-.3-.8-1.1-.4-.5-.4-.5-.7-1.1-.4-.5-.3-.6-.6-1.1-.2-.3-.2-.3-.3-.7-.3-.7-.3-.7c-.4-.9-.8-1.8-1.2-2.8l-.5-1.4-.5-1.4-.2-.7-.2-.7-.4-1.4q-.6-2-1-4v.2l.4 1.4.5 1.8.8 2.2.4.7.4.7.8 1.5.9 1.5 1 1.5c.4.6.5.5.2-.3l-.3-.8-.4-.9-.8-1.8-.8-1.9-.2-.5-.2-.5-.4-1-.3-.6-.2-.6-.5-1.3a48.8 48.8 0 0 1-1.9-9.2v-.3c0-.5 0-1.1.1-1.6A76 76 0 0 1 4 43.3 52.2 52.2 0 0 1 7 34c.4-.9.8-1.7 1.2-2.6l.8-1.2.7-1.2.8-1.2.8-1.2c.6-.7 1.2-1.5 1.8-2.2l.7-.8.4-.4.4-.4.8-.8.4-.4.2-.2.2-.2 1.7-1.5 1.8-1.5 1.2-1.1.6-.6.7-.5 1.4-1.1L25 14l.3-.3.3-.2.5-.3.3-.4c0-.1-.5 0-1.5.4l-1.3.6a35.5 35.5 0 0 0-7 5.1l-1 1.1-.5.6-.5.6-1 1.1-1 1.2c-1.3 1.6-2.5 3.3-3.7 5L8 29.6l-.4.5-.2.3-.2.3-.7 1.1-.7 1.1-.6 1-.3.5-.3.5-.9 1.9-.8 1.9-.2.5-.2.5-.3.8v-.8l.2-1.1v-.7l-.2.7-.3 1.1.1 1.2-.2 1.1-.2 1.1-.2 1.3-.4 1.7c-.3 1.2-.5 2.4-.6 3.6S.2 52 .1 53.2 0 55.6 0 56.8a40.4 40.4 0 0 0 1 7.9 50.2 50.2 0 0 0 2.4 7.8l.8 1.9.9 1.8.2.5.2.4.5.9.5.9.5.9.6 1.1a28.1 28.1 0 0 0 7.5 8.1c.7.5 1.5 1 1.3.4z"></path><path d="M39.7 103.2l-4.9-1.9-.6-.3-.6-.3-1.3-.6-1.3-.6-.7-.3-.7-.3-1.7-.9-1.5-.9a76.3 76.3 0 0 1-6.8-5.1l-1.7-1.5c-1.3-1.1-2-1.1-1.3-.1l.4.5a6.8 6.8 0 0 0 .7 1.2l1.2 1.4 1.6 1.4.9.7 1 .7 2.4 1.7 1.3.8 1.3.7 1.4.8.7.4.7.3 1.5.7 1.5.6 1.7.6.8.2h.8l2.9.4c1.6.3 1.6.1.3-.3zM62.3 8.4l.9.3.8.3 1.8.7 1.9.7.5.2.5.2 1 .4.6.2.6.3 1.2.6a48.6 48.6 0 0 1 7.9 5.1l1.3 1.1.6.6.6.6 1.2 1.2.3.3.3.3.6.6a37.1 37.1 0 0 1 2.6 2.7l2.4 2.9.7.9.7.9.5.5-.3-.7-.6-1-.7-1-.6-1-.6-.9a38.9 38.9 0 0 0-7-7.8l-.5-.5-.6-.4-1.1-.8-.6-.4-.6-.4-1.2-.8-1.2-.7-1.2-.7-1.3-.7-1.3-.7-1.4-.9-2.1-1-.7-.2-.8-.2-1.6-.4-1.8-.5-1.8-.3c-.8-.2-.7 0 .1.4zm36.3 51.8a26.8 26.8 0 0 0 .2-9.2c-.2-.9-.4-1.7-.7-1.2a3.5 3.5 0 0 0-.4 1.2c0 .3-.1.6-.1 1s-.1.7-.1 1.2 0 .9-.1 1.3v2.7l-.2 1.4v1.3l-.2 1.3v.6l-.2.6-.8 1.1v.7l-.3.7-.3.7-.3.7c-.4.9-.7 1.9-1.1 2.8l-.6 1.4-.6 1.3-.3.7-.3.7-.7 1.3a42.9 42.9 0 0 1-3.9 5.8 38.5 38.5 0 0 1-4.9 5 76.1 76.1 0 0 1-8.5 5.7 52.1 52.1 0 0 1-8.7 4.4l-2.7.9-1.4.4-1.4.3-1.4.3-1.4.2-2.9.2h-6.5l-2.3-.3h-3.4l-1.8-.2-1.7-.3h-1.9c-.1.1.4.4 1.3.8l1.3.5a35.5 35.5 0 0 0 8.7 1h6.2c2.1-.2 4.1-.5 6.2-.9l1.4-.3H63l1.2-.2 1.2-.3 1.1-.3h.6l.6-.2 1.9-.7 1.9-.8.5-.2.5-.2.9-.5.5-.2h.5l.9-.5 1.5-.9 1.5-.9 2.9-2.1 2.8-3.1 2.6-2.5a40.3 40.3 0 0 0 4.9-6.3 50.4 50.4 0 0 0 3.8-7.2l.8-1.9.7-1.9.2-.5v-.2l-.4 1.6-.3 1-.3.9-.3.9-.3.9-.4 1.7-.4 1.6a3.5 3.5 0 0 0-.1.7c0 .2 0 .3.1.4s.3-.1.6-.3l.8-1a10.6 10.6 0 0 0 .9-1.5l.4-1 .4-1 .4-1.5v-1l.2-1 .2-1 .2-1 .2-1.3v-1.2c0-.4.1-.8.1-1.2V61c0-.3-.1-1.3-.4-.8zM35.9 8.9h.8l1.3-.2 1.8-.2h1.8l1.7-.3 1.7-.5h3.4l1.7-.2h2.2l1.1-.2H53l-1-.9h-9.3l-.9.2L40 7l-1.7.6-1.6.7c-.7.3-1.1.5-1.1.6zm37.4 89.5a33.3 33.3 0 0 1-7.6 3l-1.4.4-1.3.4-1.1.3-.9.2-1.3.5c-.1.1 0 .1.1.1h.6l1.8-.2 2.1-.6.8-.3.8-.3.8-.3.8-.3 1.7-.6 1.7-.6 1.3-.6 1.4-.7c.8-.4 1.4-.9 1.3-1.1s-.6.2-1.6.7zm14.3-10.9l-.7.7-.9.8-.4.6-.2.3v.3l.5-.2.5-.3a14.4 14.4 0 0 0 1.8-1.9 1.8 1.8 0 0 0 .3-.9z"></path><circle cx="43.8" cy="103.1" r=".6"></circle><circle cx="48.7" cy="104.5" r=".4"></circle><circle cx="31.8" cy="95.1" r=".3"></circle><circle cx="47.3" cy="102.2" r=".3"></circle><circle cx="76.6" cy="96.5" r=".5"></circle><circle cx="80" cy="95.1" r=".9"></circle><circle cx="82.8" cy="92.2" r=".4"></circle><circle cx="90.5" cy="85.3" r=".7"></circle><circle cx="92.4" cy="81.3" r=".4"></circle><circle cx="93.9" cy="78.4" r=".3"></circle><circle cx="43.2" cy="1.6" r=".4"></circle><circle cx="36.8" cy="2.1" r=".4"></circle><circle cx="40.5" cy="3.7" r=".3"></circle><circle cx="55.7" cy="1" r=".4"></circle><circle cx="60.1" cy="1.7" r=".4"></circle><circle cx="79.5" cy="10.5" r=".5"></circle><circle cx="82.1" cy="13.7" r=".3"></circle><circle cx="85.9" cy="16.3" r=".5"></circle><circle cx="87" cy="18.7" r=".2"></circle><circle cx="84.4" cy="14.2" r=".2"></circle><circle cx="18" cy="13.7" r=".3"></circle><circle cx="12.6" cy="19.3" r=".6"></circle></g></g><g id="SvgjsG1173" featureKey="nYIUkx-0" transform="matrix(2.1371631129351263,0,0,2.1371631129351263,103.63629771123058,59.54927347835232)" fill="url(#SvgjsLinearGradient1180)"><g xmlns="http://www.w3.org/2000/svg"><path fill="url(#SvgjsLinearGradient1180)" d="M31.974,18.723h-1.062c-0.209-1.57-0.279-4.177,0.879-5.329c0.666-0.664,1.786-0.821,3.328-0.455   c5.305,1.25,8.613-0.509,9.841-5.233c0.032-0.121,0.052-0.218,0.069-0.27c0.244-0.594-0.037-1.274-0.633-1.52   c-0.596-0.249-1.278,0.036-1.521,0.629c-0.048,0.119-0.107,0.319-0.173,0.576c-0.411,1.597-1.264,4.917-7.048,3.549   c-2.374-0.562-4.226-0.2-5.504,1.069c-1.878,1.866-1.809,5.096-1.582,6.98H1.106v24.235h46.791V18.72H31.974V18.723z M45.565,40.63   H3.434V21.055h25.573h2.967h13.592V40.63z"></path><rect x="5.789" y="23.455" fill="url(#SvgjsLinearGradient1180)" width="2.525" height="2.33"></rect><rect x="9.577" y="23.455" fill="url(#SvgjsLinearGradient1180)" width="2.525" height="2.33"></rect><rect x="13.365" y="23.455" fill="url(#SvgjsLinearGradient1180)" width="2.525" height="2.33"></rect><rect x="17.549" y="23.455" fill="url(#SvgjsLinearGradient1180)" width="2.525" height="2.33"></rect><rect x="21.34" y="23.455" fill="url(#SvgjsLinearGradient1180)" width="2.525" height="2.33"></rect><rect x="25.126" y="23.455" fill="url(#SvgjsLinearGradient1180)" width="2.524" height="2.33"></rect><rect x="28.911" y="23.455" fill="url(#SvgjsLinearGradient1180)" width="2.525" height="2.33"></rect><rect x="32.858" y="23.455" fill="url(#SvgjsLinearGradient1180)" width="2.525" height="2.33"></rect><rect x="36.57" y="23.455" fill="url(#SvgjsLinearGradient1180)" width="2.523" height="2.33"></rect><rect x="40.515" y="23.455" fill="url(#SvgjsLinearGradient1180)" width="2.524" height="2.33"></rect><rect x="5.875" y="27.823" fill="url(#SvgjsLinearGradient1180)" width="2.525" height="2.329"></rect><rect x="9.664" y="27.823" fill="url(#SvgjsLinearGradient1180)" width="2.525" height="2.329"></rect><rect x="13.452" y="27.823" fill="url(#SvgjsLinearGradient1180)" width="2.525" height="2.329"></rect><rect x="17.636" y="27.823" fill="url(#SvgjsLinearGradient1180)" width="2.525" height="2.329"></rect><rect x="21.424" y="27.823" fill="url(#SvgjsLinearGradient1180)" width="2.525" height="2.329"></rect><rect x="25.212" y="27.823" fill="url(#SvgjsLinearGradient1180)" width="2.525" height="2.329"></rect><rect x="29" y="27.823" fill="url(#SvgjsLinearGradient1180)" width="2.525" height="2.329"></rect><rect x="32.945" y="27.823" fill="url(#SvgjsLinearGradient1180)" width="2.525" height="2.329"></rect><polygon fill="url(#SvgjsLinearGradient1180)" points="12.187,34.23 12.187,31.9 10.839,31.9 9.661,31.9 5.874,31.9 5.874,34.23 9.661,34.23    10.839,34.23  "></polygon><rect x="13.449" y="31.9" fill="url(#SvgjsLinearGradient1180)" width="2.525" height="2.33"></rect><rect x="17.633" y="31.9" fill="url(#SvgjsLinearGradient1180)" width="2.526" height="2.33"></rect><rect x="21.421" y="31.9" fill="url(#SvgjsLinearGradient1180)" width="2.525" height="2.33"></rect><rect x="25.21" y="31.9" fill="url(#SvgjsLinearGradient1180)" width="2.525" height="2.33"></rect><rect x="28.997" y="31.9" fill="url(#SvgjsLinearGradient1180)" width="2.526" height="2.33"></rect><rect x="32.943" y="31.9" fill="url(#SvgjsLinearGradient1180)" width="2.524" height="2.33"></rect><rect x="5.948" y="36.051" fill="url(#SvgjsLinearGradient1180)" width="2.526" height="2.33"></rect><rect x="9.736" y="36.051" fill="url(#SvgjsLinearGradient1180)" width="2.526" height="2.33"></rect><rect x="13.524" y="36.051" fill="url(#SvgjsLinearGradient1180)" width="2.525" height="2.33"></rect><polygon fill="url(#SvgjsLinearGradient1180)" points="25.285,36.051 24.022,36.051 21.497,36.051 20.233,36.051 18.814,36.051 17.708,36.051    17.708,38.381 18.814,38.381 20.233,38.381 21.497,38.381 24.022,38.381 25.285,38.381 27.81,38.381 31.598,38.381 31.598,36.051    27.81,36.051  "></polygon><rect x="33.018" y="36.051" fill="url(#SvgjsLinearGradient1180)" width="2.525" height="2.33"></rect><polygon fill="url(#SvgjsLinearGradient1180)" points="37.991,36.051 36.729,36.051 36.729,38.381 37.991,38.381 39.254,38.381 43.199,38.381    43.199,36.051 39.254,36.051  "></polygon><path fill="url(#SvgjsLinearGradient1180)" d="M36.666,34.23h6.407v-6.407h-6.407V34.23z M38.997,30.152h1.748V31.9h-1.748V30.152z"></path></g></g><g id="SvgjsG1174" featureKey="PXhRQw-0" transform="matrix(3.859513724002897,0,0,3.859513724002897,56,148.9235878295403)" fill="#ffffff"><path d="M5.38 5.720000000000001 l0 14.3 l-2.98 0 c-1.32 0 -2.4 -1.06 -2.4 -2.4 l0 -6.54 c0 -1.32 1.08 -2.4 2.4 -2.4 l1.06 0 l0 -2.96 l1.92 0 z M3.46 10.58 l-1.06 0 c-0.28 0 -0.5 0.22 -0.5 0.5 l0 6.54 c0 0.28 0.22 0.5 0.5 0.5 l1.06 0 l0 -7.54 z M8.28 19.94 c0.02 -3.14 0.02 -8.16 0 -11.26 l-1.9 0.02 c0.02 3.08 0.02 8.08 0 11.22 z M6.38 6.300000000000001 l1.9 0 l0 1.86 l-1.9 0 l0 -1.86 z M14.64 21.44 c0 1.32 -1.06 2.38 -2.36 2.38 l-0.6 0 c-1.32 0 -2.38 -1.06 -2.38 -2.38 l1.9 0 c0 0.26 0.2 0.48 0.48 0.48 l0.6 0 c0.26 0 0.46 -0.22 0.46 -0.48 l0 -1.52 c-0.18 0.04 -0.36 0.08 -0.56 0.08 l-0.42 0 c-1.36 0 -2.46 -1.12 -2.46 -2.48 l0.04 -6.42 c0 -1.36 1.1 -2.46 2.46 -2.46 l0.04 0 l0.36 0.02 c1.34 0 2.44 1.1 2.44 2.46 l0 10.32 z M12.18 18.1 c0.32 0 0.56 -0.26 0.56 -0.58 l0 -6.4 c0 -0.32 -0.26 -0.56 -0.56 -0.56 l-0.04 0 l-0.36 -0.02 c-0.3 0 -0.54 0.26 -0.54 0.56 l-0.04 6.44 c0 0.3 0.26 0.56 0.56 0.56 l0.42 0 z M17.54 19.94 c0.02 -3.14 0.02 -8.16 0 -11.26 l-1.9 0.02 c0.02 3.08 0.02 8.08 0 11.22 z M15.64 6.300000000000001 l1.9 0 l0 1.86 l-1.9 0 l0 -1.86 z M23.96 11.86 l0 1.74 l-5.4 0 l0 -1.74 l5.4 0 z M28.16 18.08 l0 1.9 l-0.58 0 c-1.44 0 -2.62 -1.18 -2.62 -2.62 l0 -11.64 l1.9 0 l0 11.64 c0 0.38 0.32 0.72 0.72 0.72 l0.58 0 z M33.48 16.38 l0 3.6 l-1.84 0 l0 -0.06 c-0.18 0.04 -0.36 0.06 -0.56 0.06 c-1.4 0 -2.52 -1.12 -2.52 -2.52 l0 -2.14 c0 -0.56 0.22 -1.08 0.62 -1.48 c0.38 -0.38 0.9 -0.6 1.46 -0.6 l0.96 0 l0 -2.16 c0 -0.3 -0.26 -0.56 -0.56 -0.56 l-0.1 0 c-0.32 0 -0.56 0.26 -0.56 0.56 l0 1.52 l-1.86 0 l0 -1.52 c0 -1.34 1.08 -2.42 2.42 -2.42 l0.1 0 c1.34 0 2.42 1.08 2.42 2.42 z M31.08 18.12 c0.3 0 0.56 -0.24 0.56 -0.54 l-0.02 -2.46 l-0.98 -0.02 c-0.08 0 -0.12 0.04 -0.16 0.06 c-0.02 0.04 -0.06 0.08 -0.06 0.16 l0 2.14 c0 0.36 0.3 0.66 0.66 0.66 z M37.459999999999994 8.66 c1.32 0 2.38 1.08 2.38 2.4 l0 6.54 c0 1.32 -1.06 2.4 -2.38 2.4 l-2.98 0 l0 -14.28 l1.9 0 l0 2.94 l1.08 0 z M37.94 17.6 l0 -6.54 c0 -0.28 -0.22 -0.5 -0.48 -0.5 l-1.08 0 l0 7.52 l1.08 0 c0.26 0 0.48 -0.22 0.48 -0.48 z M42.519999999999996 20 l-1.68 0 l0 -1.84 l1.68 0 l0 1.84 z M45.419999999999995 19.94 c0.02 -3.14 0.02 -8.16 0 -11.26 l-1.9 0.02 c0.02 3.08 0.02 8.08 0 11.22 z M43.519999999999996 6.300000000000001 l1.9 0 l0 1.86 l-1.9 0 l0 -1.86 z M49.14 20.02 c-1.5 0 -2.7 -1.22 -2.7 -2.7 l0 -5.94 c0 -1.48 1.2 -2.7 2.7 -2.7 c1.48 0 2.68 1.22 2.68 2.7 l0 5.94 c0 1.48 -1.2 2.7 -2.68 2.7 z M49.14 10.6 c-0.44 0 -0.78 0.36 -0.78 0.78 l0 5.94 c0 0.44 0.34 0.78 0.78 0.78 c0.42 0 0.78 -0.34 0.78 -0.78 l0 -5.94 c0 -0.42 -0.36 -0.78 -0.78 -0.78 z"></path></g><g id="SvgjsG1175" featureKey="mlRtrp-0" transform="matrix(0.3576186242602077,0,0,0.3576186242602077,75.78542881691759,248.85428876601628)" fill="url(#SvgjsLinearGradient1183)"><path d="M2.46 20 l-1.86 -1.86 l0 -10.28 l1.86 -1.86 l4.54 0 l1.86 1.86 l0 10.28 l-1.86 1.86 l-4.54 0 z M3.5 17.48 l2.46 0 l0.38 -0.38 l0 -8.2 l-0.38 -0.38 l-2.46 0 l-0.38 0.38 l0 8.2 z M19.276 20 l-1.86 -1.86 l0 -9.62 l-0.42 -0.28 l0 -2.24 l3.36 0 l0 2.24 l-0.42 0.28 l0 8.58 l0.38 0.38 l2.32 0 l0.38 -0.38 l0 -8.58 l-0.42 -0.28 l0 -2.24 l3.36 0 l0 2.24 l-0.42 0.28 l0 9.62 l-1.86 1.86 l-4.4 0 z M34.092000000000006 20 l0 -2.24 l0.42 -0.28 l0 -8.96 l-0.42 -0.28 l0 -2.24 l6.4 0 l1.86 1.86 l0 5.1 l-1.08 1.1 l0.86 3.34 l0.5 0.36 l0 2.24 l-3.44 0 l0 -2.24 l0.36 -0.24 l-0.7 -2.7 l-1.82 0 l0 2.66 l0.42 0.28 l0 2.24 l-3.36 0 z M37.032000000000004 12.3 l2.42 0 l0.38 -0.38 l0 -3.02 l-0.38 -0.38 l-2.42 0 l0 3.78 z M63.644000000000005 20 l0 -2.24 l0.42 -0.28 l0 -8.96 l-0.42 0 l-0.28 0.42 l-2.24 0 l0 -2.94 l8.4 0 l0 2.94 l-2.24 0 l-0.28 -0.42 l-0.42 0 l0 8.96 l0.42 0.28 l0 2.24 l-3.36 0 z M77.66 20 l0 -2.24 l0.42 -0.28 l0 -8.96 l-0.42 -0.28 l0 -2.24 l7.28 0 l0 2.94 l-2.24 0 l-0.28 -0.42 l-1.82 0 l0 3.22 l3.22 0 l0 2.52 l-3.22 0 l0 3.22 l1.82 0 l0.28 -0.42 l2.24 0 l0 2.94 l-7.28 0 z M94.93599999999999 20 l-1.86 -1.86 l0 -10.28 l1.86 -1.86 l4.4 0 l1.86 1.86 l0 2.62 l-2.52 0 l0 -1.58 l-0.38 -0.38 l-2.32 0 l-0.38 0.38 l0 8.2 l0.38 0.38 l2.32 0 l0.38 -0.38 l0 -1.58 l2.52 0 l0 2.62 l-1.86 1.86 l-4.4 0 z M109.332 20 l0 -2.24 l0.42 -0.28 l0 -8.96 l-0.42 -0.28 l0 -2.24 l3.36 0 l0 2.24 l-0.42 0.28 l0 3.22 l3.08 0 l0 -3.22 l-0.42 -0.28 l0 -2.24 l3.36 0 l0 2.24 l-0.42 0.28 l0 8.96 l0.42 0.28 l0 2.24 l-3.36 0 l0 -2.24 l0.42 -0.28 l0 -3.22 l-3.08 0 l0 3.22 l0.42 0.28 l0 2.24 l-3.36 0 z M126.428 20 l0 -2.24 l0.42 -0.28 l0 -8.96 l-0.42 -0.28 l0 -2.24 l3.1 0 l2.92 7.48 l0 -4.96 l-0.42 -0.28 l0 -2.24 l3.36 0 l0 2.24 l-0.42 0.28 l0 11.48 l-2.68 0 l-2.92 -7.48 l0 4.96 l0.42 0.28 l0 2.24 l-3.36 0 z M145.38400000000001 20 l-1.86 -1.86 l0 -10.28 l1.86 -1.86 l4.54 0 l1.86 1.86 l0 10.28 l-1.86 1.86 l-4.54 0 z M146.424 17.48 l2.46 0 l0.38 -0.38 l0 -8.2 l-0.38 -0.38 l-2.46 0 l-0.38 0.38 l0 8.2 z M159.92 20 l0 -2.24 l0.42 -0.28 l0 -8.96 l-0.42 -0.28 l0 -2.24 l3.36 0 l0 2.24 l-0.42 0.28 l0 8.96 l1.4 0 l0.28 -0.42 l2.24 0 l0 2.94 l-6.86 0 z M176.776 20 l-1.86 -1.86 l0 -10.28 l1.86 -1.86 l4.54 0 l1.86 1.86 l0 10.28 l-1.86 1.86 l-4.54 0 z M177.816 17.48 l2.46 0 l0.38 -0.38 l0 -8.2 l-0.38 -0.38 l-2.46 0 l-0.38 0.38 l0 8.2 z M193.172 20 l-1.86 -1.86 l0 -10.28 l1.86 -1.86 l4.4 0 l1.86 1.86 l0 2.62 l-2.52 0 l0 -1.58 l-0.38 -0.38 l-2.32 0 l-0.38 0.38 l0 8.2 l0.38 0.38 l2.32 0 l0.38 -0.38 l0 -2.84 l-0.84 0 l-0.42 -0.28 l0 -2.24 l3.78 0 l0 6.4 l-1.86 1.86 l-4.4 0 z M209.548 20 l0 -2.24 l0.42 -0.28 l0 -2.68 l-2.22 -6.18 l-0.58 -0.38 l0 -2.24 l2.3 0 l1.76 4.86 l1.76 -4.86 l2.3 0 l0 2.24 l-0.58 0.38 l-2.22 6.14 l0 2.74 l0.42 0.26 l0 2.24 l-3.36 0 z M223.02399999999997 20 l0 -2.52 l2.52 0 l0 2.52 l-2.52 0 z M246.196 20 l0 -2.24 l0.42 -0.28 l0 -2.68 l-2.22 -6.18 l-0.58 -0.38 l0 -2.24 l2.3 0 l1.76 4.86 l1.76 -4.86 l2.3 0 l0 2.24 l-0.58 0.38 l-2.22 6.14 l0 2.74 l0.42 0.26 l0 2.24 l-3.36 0 z M261.532 20 l-1.86 -1.86 l0 -10.28 l1.86 -1.86 l4.54 0 l1.86 1.86 l0 10.28 l-1.86 1.86 l-4.54 0 z M262.572 17.48 l2.46 0 l0.38 -0.38 l0 -8.2 l-0.38 -0.38 l-2.46 0 l-0.38 0.38 l0 8.2 z M278.348 20 l-1.86 -1.86 l0 -9.62 l-0.42 -0.28 l0 -2.24 l3.36 0 l0 2.24 l-0.42 0.28 l0 8.58 l0.38 0.38 l2.32 0 l0.38 -0.38 l0 -8.58 l-0.42 -0.28 l0 -2.24 l3.36 0 l0 2.24 l-0.42 0.28 l0 9.62 l-1.86 1.86 l-4.4 0 z M293.16400000000004 20 l0 -2.24 l0.42 -0.28 l0 -8.96 l-0.42 -0.28 l0 -2.24 l6.4 0 l1.86 1.86 l0 5.1 l-1.08 1.1 l0.86 3.34 l0.5 0.36 l0 2.24 l-3.44 0 l0 -2.24 l0.36 -0.24 l-0.7 -2.7 l-1.82 0 l0 2.66 l0.42 0.28 l0 2.24 l-3.36 0 z M296.10400000000004 12.3 l2.42 0 l0.38 -0.38 l0 -3.02 l-0.38 -0.38 l-2.42 0 l0 3.78 z M320.196 20 l0 -2.24 l0.42 -0.28 l0 -8.96 l-0.42 -0.28 l0 -2.24 l6.26 0 l1.86 1.86 l0 4.12 l-1.02 1.02 l1.02 1.02 l0 4.12 l-1.86 1.86 l-6.26 0 z M323.136 17.48 l2.28 0 l0.38 -0.38 l0 -2.04 l-0.8 -0.8 l-1.86 0 l0 3.22 z M323.136 11.74 l1.86 0 l0.8 -0.8 l0 -2.04 l-0.38 -0.38 l-2.28 0 l0 3.22 z M338.73199999999997 20 l-1.86 -1.86 l0 -9.62 l-0.42 -0.28 l0 -2.24 l3.36 0 l0 2.24 l-0.42 0.28 l0 8.58 l0.38 0.38 l2.32 0 l0.38 -0.38 l0 -8.58 l-0.42 -0.28 l0 -2.24 l3.36 0 l0 2.24 l-0.42 0.28 l0 9.62 l-1.86 1.86 l-4.4 0 z M355.40799999999996 20 l-1.86 -1.86 l0 -2.62 l2.52 0 l0 1.58 l0.38 0.38 l2.04 0 l0.38 -0.38 l0 -2.46 l-0.38 -0.38 l-3.08 0 l-1.86 -1.86 l0 -4.54 l1.86 -1.86 l4.12 0 l1.86 1.86 l0 2.62 l-2.52 0 l0 -1.58 l-0.38 -0.38 l-2.04 0 l-0.38 0.38 l0 2.46 l0.38 0.38 l3.08 0 l1.86 1.86 l0 4.54 l-1.86 1.86 l-4.12 0 z M369.524 20 l0 -2.24 l0.42 -0.28 l0 -8.96 l-0.42 -0.28 l0 -2.24 l3.36 0 l0 2.24 l-0.42 0.28 l0 8.96 l0.42 0.28 l0 2.24 l-3.36 0 z M381.02 20 l0 -2.24 l0.42 -0.28 l0 -8.96 l-0.42 -0.28 l0 -2.24 l3.1 0 l2.92 7.48 l0 -4.96 l-0.42 -0.28 l0 -2.24 l3.36 0 l0 2.24 l-0.42 0.28 l0 11.48 l-2.68 0 l-2.92 -7.48 l0 4.96 l0.42 0.28 l0 2.24 l-3.36 0 z M398.116 20 l0 -2.24 l0.42 -0.28 l0 -8.96 l-0.42 -0.28 l0 -2.24 l7.28 0 l0 2.94 l-2.24 0 l-0.28 -0.42 l-1.82 0 l0 3.22 l3.22 0 l0 2.52 l-3.22 0 l0 3.22 l1.82 0 l0.28 -0.42 l2.24 0 l0 2.94 l-7.28 0 z M415.39199999999994 20 l-1.86 -1.86 l0 -2.62 l2.52 0 l0 1.58 l0.38 0.38 l2.04 0 l0.38 -0.38 l0 -2.46 l-0.38 -0.38 l-3.08 0 l-1.86 -1.86 l0 -4.54 l1.86 -1.86 l4.12 0 l1.86 1.86 l0 2.62 l-2.52 0 l0 -1.58 l-0.38 -0.38 l-2.04 0 l-0.38 0.38 l0 2.46 l0.38 0.38 l3.08 0 l1.86 1.86 l0 4.54 l-1.86 1.86 l-4.12 0 z M431.36799999999994 20 l-1.86 -1.86 l0 -2.62 l2.52 0 l0 1.58 l0.38 0.38 l2.04 0 l0.38 -0.38 l0 -2.46 l-0.38 -0.38 l-3.08 0 l-1.86 -1.86 l0 -4.54 l1.86 -1.86 l4.12 0 l1.86 1.86 l0 2.62 l-2.52 0 l0 -1.58 l-0.38 -0.38 l-2.04 0 l-0.38 0.38 l0 2.46 l0.38 0.38 l3.08 0 l1.86 1.86 l0 4.54 l-1.86 1.86 l-4.12 0 z M445.484 20 l0 -2.52 l2.52 0 l0 2.52 l-2.52 0 z"></path></g>
			</g>
		</svg>
	